<!DOCTYPE svg PUBLIC "-//W3C//DTD SVG 1.1//EN" "http://www.w3.org/Graphics/SVG/1.1/DTD/svg11.dtd">
<!-- Uploaded to: SVG Repo, www.svgrepo.com, Transformed by: SVG Repo Mixer Tools -->
<svg fill="#0000000" version="1.1" id="Capa_1" xmlns="http://www.w3.org/2000/svg" xmlns:xlink="http://www.w3.org/1999/xlink" width="800px" height="800px" viewBox="-6.12 -6.12 73.43 73.43" xml:space="preserve" transform="rotate(0)" stroke="#0000000">
<g id="SVGRepo_bgCarrier" stroke-width="0" transform="translate(0,0), scale(1)">
<rect x="-6.12" y="-6.12" width="73.43" height="73.43" rx="15.420300000000003" fill="#23BF4A" strokewidth="0"/>
</g>
<g id="SVGRepo_tracerCarrier" stroke-linecap="round" stroke-linejoin="round"/>
<g id="SVGRepo_iconCarrier"> <g> <g> <path d="M3,36.938c-0.375,0-1.613-0.113-2.637-1.32c-0.158,2.699,1.607,5.03,4.022,5.243l11.607,1.022 c1.472,0.13,2.838-0.566,3.76-1.729c-2.431-1.015-6.766-2.071-16.748-3.216H3z"/> <path d="M13.37,22.264c0.264,0,0.524-0.01,0.782-0.028l1.596-0.245c0.094-0.022,0.186-0.053,0.28-0.078 c-3.552-1.226-10.708-3.607-12.964-3.71l0.069,0.059C3.183,18.3,7.946,22.264,13.37,22.264z"/> <path d="M3,35.896c0.034,0,0.053-0.001,0.053-0.001c10.396,1.188,14.783,2.285,17.277,3.364c3.881,1.681,3.161,3.318,13.261,5.197 c2.438,0.453,4.752,0.646,6.931,0.646c12.655,0,20.673-6.52,20.673-6.52c-0.294-2.496-3.523-4.259-11.599-7.004 c-3.894-1.324-8.295-4.042-11.812-6.502v7.486l-0.513,0.009c0,0-0.274,0.005-0.7,0.005c-2.491,0-4.04-0.139-4.603-0.413 c-0.385-0.188-0.905-0.439-0.589-6.194c-1.044,0.791-1.962,1.19-2.733,1.19c-0.561,0-1.333-0.213-1.834-1.227 c-0.444-0.9-0.399-1.845,0.131-2.733c0.865-1.448,2.938-2.53,4.644-2.829c-0.22-0.182-0.343-0.288-0.343-0.288 s-1.234-1.796-4.088-1.796c-1.76,0-4.136,0.684-7.217,2.896c-0.335,0.24-0.671,0.45-1.009,0.643 c-0.995,0.573-2.002,0.958-3.003,1.19c-0.542,0.125-1.081,0.205-1.617,0.247c-0.314,0.025-0.628,0.041-0.938,0.041 c-0.624,0-1.235-0.056-1.835-0.143c-0.516-0.074-1.022-0.171-1.513-0.295c-3.738-0.937-6.663-3.105-7.378-3.669 c-0.11-0.086-0.18-0.145-0.18-0.145c-0.139,0.411-0.266,0.805-0.392,1.195c-0.158,0.493-0.306,0.971-0.444,1.434 c-2.009,6.744-1.865,10.291-1.124,12.152C1.281,35.789,2.71,35.896,3,35.896z"/> <path d="M32.508,31.26c0.408,0.133,1.667,0.274,4.062,0.274c0.062,0,0.118,0,0.171,0v-7.195V23.69v-0.645v-0.567l-0.907-0.667 l0.075-0.333c0.094-0.41,0.148-0.748,0.171-1.064c0.079-1.025-0.496-2.988-1.33-3.888c-0.523-0.566-0.977-0.582-1.524-0.037 c-0.922,0.922-0.903,2.231-0.627,3.366c0.065,0.271,0.141,0.537,0.229,0.781l0.035,0.103l0.202,0.566l-0.316,0.012l-0.396,0.013 c-1.486,0.053-3.734,1.093-4.518,2.405c-0.351,0.586-0.379,1.155-0.092,1.737c0.282,0.574,0.629,0.646,0.9,0.646 c0.708,0,1.765-0.607,2.975-1.708l0.957-0.87l-0.086,1.29C32.159,29.842,32.417,31.014,32.508,31.26z"/> </g> </g> </g>
</svg>